<?xml version="1.0" encoding="UTF-8" standalone="no"?>
<!DOCTYPE svg PUBLIC "-//W3C//DTD SVG 1.1//EN" "http://www.w3.org/Graphics/SVG/1.1/DTD/svg11.dtd">
<svg width="100%" height="100%" viewBox="0 0 1920 1080" version="1.1" xmlns="http://www.w3.org/2000/svg" xmlns:xlink="http://www.w3.org/1999/xlink" xml:space="preserve" xmlns:serif="http://www.serif.com/" style="fill-rule:evenodd;clip-rule:evenodd;stroke-linecap:round;stroke-linejoin:round;stroke-miterlimit:1.5;">
    <g transform="matrix(2.73949,0,0,2.73949,-821.366,-57.6034)">
        <path d="M649.881,25.722L649.881,335.159M439.836,410.566C441.686,384.537 445.385,332.479 454.924,296.376C464.355,260.681 482.751,221.045 497.066,193.946C508.648,172.022 524.764,149.63 540.815,133.784C555.782,119.008 573.728,106.387 593.371,98.87C600.176,96.266 607.662,94.072 615.411,92.354C630.28,89.057 646.12,87.512 659.986,88.181C680.712,89.18 701.544,95.47 719.928,104.976C738.312,114.481 756.148,129.037 770.291,145.214C785.824,162.98 801.532,187.935 813.123,211.573C825.477,236.767 837.425,273.799 844.416,296.376C849.52,312.859 852.514,329.968 855.07,347.032C857.921,366.064 860.321,395.732 861.522,410.566" style="fill:none;stroke:black;stroke-width:0.18px;"/>
    </g>
</svg>
