<svg width="1213.8483" height="1050.5693" viewBox="0 0 1213.8483 1050.5693" xmlns="http://www.w3.org/2000/svg" xmlns:xlink="http://www.w3.org/1999/xlink"><path d="M0.095,1040.5875c1.7447,-58.6521 5.2341,-175.9592 21.6165,-262.1915c19.4874,-102.6569 46.959,-246.4555 95.4556,-353.7444c47.7574,-105.723 134.6669,-222.9987 195.4652,-290.0003c45.0664,-49.674 112.3407,-90.1299 169.206,-111.9922c53.5533,-20.608 115.8301,-27.3573 171.8378,-19.185c55.9781,8.1723 116.185,34.0494 164.1198,68.2103c52.9915,37.7613 109.6793,99.8423 153.7699,158.3545c44.3271,58.8264 83.8637,135.6463 112.252,194.6127c24.544,51.0113 42.1093,105.0658 58.0481,159.1831c17.3287,58.9579 35.8106,128.7655 45.9535,194.5613c11.9763,77.7714 21.2912,207.3084 25.9339,272.0783" fill="none" fill-rule="evenodd" stroke="#000000" stroke-width="0.19" stroke-linecap="round" stroke-linejoin="round" stroke-miterlimit="1.5" stroke-dasharray="" stroke-dashoffset="0" font-family="none" font-weight="none" font-size="none" text-anchor="none" style="mix-blend-mode: normal"></path></svg>