<?xml version="1.0" encoding="UTF-8" standalone="no"?>
<!DOCTYPE svg PUBLIC "-//W3C//DTD SVG 1.1//EN" "http://www.w3.org/Graphics/SVG/1.1/DTD/svg11.dtd">
<svg width="100%" height="100%" viewBox="0 0 1920 1080" version="1.1" xmlns="http://www.w3.org/2000/svg" xmlns:xlink="http://www.w3.org/1999/xlink" xml:space="preserve" xmlns:serif="http://www.serif.com/" style="fill-rule:evenodd;clip-rule:evenodd;stroke-linecap:round;stroke-linejoin:round;stroke-miterlimit:1.5;">
    <g transform="matrix(2.79664,0,0,2.79664,-2580.09,-34.8295)">
        <path d="M1079.99,398.632C1082.54,386.216 1087.62,361.386 1090.96,342.673C1094.6,322.258 1097.49,298.192 1101.82,276.144C1106.8,250.827 1114.45,213.753 1120.81,190.776C1125.79,172.822 1131.75,154.687 1140.01,138.286C1148.26,121.9 1158.4,104.173 1170.34,92.368C1181.78,81.06 1196.51,72.823 1211.67,67.454C1226.95,62.046 1247.91,60.82 1261.99,59.919C1273.36,59.19 1284.93,59.794 1296.11,62.046C1308.59,64.562 1325.45,69.187 1336.9,75.019C1347.47,80.397 1357.29,87.893 1364.83,97.036C1375.01,109.365 1389.84,132.021 1397.95,148.991C1405.45,164.7 1409.14,181.996 1413.47,198.858C1418.01,216.525 1421.53,236.228 1425.15,254.993C1429,274.938 1433.21,299.38 1436.58,318.526C1439.6,335.629 1442.88,356.521 1445.41,369.872C1447.25,379.52 1450.29,392.261 1451.81,398.632" style="fill:none;stroke:black;stroke-width:0.18px;"/>
    </g>
    <g transform="matrix(2.79664,0,0,2.79664,-2577.3,-34.8295)">
        <path d="M1265.45,12.454L1265.45,325.495" style="fill:none;stroke:black;stroke-width:0.18px;"/>
    </g>
</svg>
