<?xml version="1.0" encoding="UTF-8" standalone="no"?>
<!DOCTYPE svg PUBLIC "-//W3C//DTD SVG 1.1//EN" "http://www.w3.org/Graphics/SVG/1.1/DTD/svg11.dtd">
<svg width="100%" height="100%" viewBox="0 0 1920 1080" version="1.1" xmlns="http://www.w3.org/2000/svg" xmlns:xlink="http://www.w3.org/1999/xlink" xml:space="preserve" xmlns:serif="http://www.serif.com/" style="fill-rule:evenodd;clip-rule:evenodd;stroke-linecap:round;stroke-linejoin:round;stroke-miterlimit:1.5;">
    <g id="Narrowtapered">
    </g>
    <g id="Tapered" transform="matrix(2.66418,0,0,2.66418,-3007.02,-1469.93)">
        <path d="M1284.99,953.657C1285.58,933.131 1286.76,892.078 1292.3,861.9C1298.89,825.974 1308.18,775.65 1324.58,738.103C1340.73,701.104 1370.12,660.062 1390.68,636.614C1405.92,619.23 1428.67,605.072 1447.9,597.421C1466.01,590.209 1487.07,587.847 1506.01,590.707C1524.94,593.567 1545.3,602.623 1561.51,614.578C1579.43,627.793 1598.6,649.519 1613.51,669.996C1628.5,690.583 1641.87,717.467 1651.47,738.103C1659.77,755.955 1665.71,774.872 1671.1,793.811C1676.96,814.444 1683.21,838.874 1686.64,861.9C1690.69,889.117 1693.84,934.45 1695.41,957.117" style="fill:none;stroke:black;stroke-width:0.19px;"/>
    </g>
    <g transform="matrix(2.66418,0,0,2.66418,-3007.02,-1469.93)">
        <path d="M1489.03,551.738L1489.03,885.244" style="fill:none;stroke:black;stroke-width:0.19px;"/>
    </g>
</svg>
